<svg width="59" height="59" viewBox="0 0 59 59" fill="none" xmlns="http://www.w3.org/2000/svg">
<path d="M54.2916 4.70834L46.4999 9.13226L38.7083 4.70834L43.1322 12.5L38.7083 20.2917L46.4999 15.8673L54.2916 20.2917L49.8672 12.5L54.2916 4.70834Z" fill="white"/>
<path d="M13.0537 12.2917H5.67871M13.6437 12.2917L18.9537 31.565C19.3969 33.0849 20.3174 34.4218 21.5792 35.378C22.8409 36.3343 24.3769 36.8591 25.96 36.875H47.4458V12.2917H13.6437ZM30.262 45.4792C30.262 47.5157 28.6111 49.1667 26.5745 49.1667C24.538 49.1667 22.887 47.5157 22.887 45.4792C22.887 43.4426 24.538 41.7917 26.5745 41.7917C28.6111 41.7917 30.262 43.4426 30.262 45.4792ZM47.4704 45.4792C47.4704 47.5157 45.8194 49.1667 43.7829 49.1667C41.7463 49.1667 40.0954 47.5157 40.0954 45.4792C40.0954 43.4426 41.7463 41.7917 43.7829 41.7917C45.8194 41.7917 47.4704 43.4426 47.4704 45.4792Z" stroke="white" stroke-linecap="round" stroke-linejoin="round"/>
</svg>
