<svg width="55" height="55" viewBox="0 0 55 55" fill="none" xmlns="http://www.w3.org/2000/svg">
<path fill-rule="evenodd" clip-rule="evenodd" d="M27.5 5.5C39.6503 5.5 49.5 15.3497 49.5 27.5C49.5 39.6503 39.6503 49.5 27.5 49.5C15.3497 49.5 5.5 39.6503 5.5 27.5C5.5 15.3497 15.3497 5.5 27.5 5.5ZM55 27.5C55 12.3122 42.6878 0 27.5 0C12.3122 0 0 12.3122 0 27.5C0 42.6878 12.3122 55 27.5 55C42.6878 55 55 42.6878 55 27.5ZM32.1945 17.3055C31.1206 16.2315 29.3794 16.2315 28.3055 17.3055L20.0555 25.5555C18.9815 26.6294 18.9815 28.3706 20.0555 29.4445L28.3055 37.6945C29.3794 38.7685 31.1206 38.7685 32.1945 37.6945C33.2685 36.6206 33.2685 34.8794 32.1945 33.8055L25.8891 27.5L32.1945 21.1945C33.2685 20.1206 33.2685 18.3794 32.1945 17.3055Z" fill="#FF822E"/>
</svg>
