<svg width="84" height="84" viewBox="0 0 84 84" fill="none" xmlns="http://www.w3.org/2000/svg">
<path fill-rule="evenodd" clip-rule="evenodd" d="M42 14C26.536 14 14 26.536 14 42C14 57.464 26.536 70 42 70C57.464 70 70 57.464 70 42C70 26.536 57.464 14 42 14ZM7 42C7 22.67 22.67 7 42 7C61.33 7 77 22.67 77 42C77 61.33 61.33 77 42 77C22.67 77 7 61.33 7 42ZM36.0251 29.0251C37.392 27.6583 39.608 27.6583 40.9749 29.0251L51.4749 39.5251C52.8417 40.892 52.8417 43.108 51.4749 44.4749L40.9749 54.9749C39.608 56.3417 37.392 56.3417 36.0251 54.9749C34.6583 53.608 34.6583 51.392 36.0251 50.0251L44.0503 42L36.0251 33.9749C34.6583 32.608 34.6583 30.392 36.0251 29.0251Z" fill="white"/>
</svg>
