<svg width="428" height="428" viewBox="0 0 428 428" fill="none" xmlns="http://www.w3.org/2000/svg">
<rect width="428" height="428" fill="white"/>
<path d="M178.226 184.74L178.246 184.6L180.586 185.8L180.546 185.88C179.386 187.82 177.066 189.02 174.486 189.02C170.746 189.02 167.726 186.46 167.726 183.3C167.726 180.16 170.746 177.58 174.486 177.58C177.066 177.58 179.386 178.8 180.546 180.74L180.586 180.82L178.246 182.02L178.226 181.86C177.786 179.52 176.286 177.86 174.586 177.8C174.546 177.8 174.526 177.8 174.486 177.8C172.366 177.8 170.206 180.26 170.206 183.3C170.206 186.34 172.366 188.82 174.486 188.82C174.526 188.82 174.546 188.82 174.586 188.82C176.286 188.76 177.786 187.08 178.226 184.74ZM187.677 177.56C191.017 177.62 193.717 180.16 193.717 183.28C193.717 186.42 191.017 188.96 187.677 189C187.657 189 187.617 189 187.577 189C187.557 189 187.517 189 187.477 189C184.137 188.96 181.457 186.42 181.457 183.28C181.457 180.16 184.137 177.62 187.477 177.56C187.517 177.56 187.557 177.56 187.577 177.56C187.617 177.56 187.657 177.56 187.677 177.56ZM187.677 188.8C189.777 188.72 191.457 186.28 191.457 183.28C191.457 180.3 189.777 177.84 187.677 177.78C187.657 177.78 187.617 177.78 187.577 177.78C187.557 177.78 187.517 177.78 187.477 177.78C185.397 177.84 183.697 180.3 183.697 183.28C183.697 186.28 185.397 188.72 187.477 188.8C187.517 188.8 187.557 188.8 187.577 188.8C187.617 188.8 187.657 188.8 187.677 188.8ZM203.019 178.26L203.079 178.32L202.359 180.26L202.239 180.14C202.179 180.08 201.319 179.2 200.119 178.94C198.919 178.7 197.719 179.32 197.179 180.4V189H195.259V177.56H197.179V179.98C197.539 179.36 198.419 178.14 199.799 177.72C200.819 177.4 201.899 177.6 203.019 178.26ZM209.823 177.46C212.983 177.46 215.563 180.02 215.563 183.18C215.563 186.34 212.983 188.9 209.823 188.9C208.483 188.9 207.183 188.42 206.163 187.56V191.46H204.243V177.46H209.823ZM211.823 187.32C212.983 186.3 213.703 184.82 213.703 183.18C213.703 180.46 211.683 178.12 208.983 177.72C208.723 177.68 208.463 177.66 208.183 177.66H206.163V187.3C207.763 188.72 210.203 188.74 211.823 187.32ZM222.774 177.56C226.114 177.62 228.814 180.16 228.814 183.28C228.814 186.42 226.114 188.96 222.774 189C222.754 189 222.714 189 222.674 189C222.654 189 222.614 189 222.574 189C219.234 188.96 216.554 186.42 216.554 183.28C216.554 180.16 219.234 177.62 222.574 177.56C222.614 177.56 222.654 177.56 222.674 177.56C222.714 177.56 222.754 177.56 222.774 177.56ZM222.774 188.8C224.874 188.72 226.554 186.28 226.554 183.28C226.554 180.3 224.874 177.84 222.774 177.78C222.754 177.78 222.714 177.78 222.674 177.78C222.654 177.78 222.614 177.78 222.574 177.78C220.494 177.84 218.794 180.3 218.794 183.28C218.794 186.28 220.494 188.72 222.574 188.8C222.614 188.8 222.654 188.8 222.674 188.8C222.714 188.8 222.754 188.8 222.774 188.8ZM238.116 178.26L238.176 178.32L237.456 180.26L237.336 180.14C237.276 180.08 236.416 179.2 235.216 178.94C234.016 178.7 232.816 179.32 232.276 180.4V189H230.356V177.56H232.276V179.98C232.636 179.36 233.516 178.14 234.896 177.72C235.916 177.4 236.996 177.6 238.116 178.26ZM245.412 177.64C249.252 178.2 249.252 181.66 249.252 181.7V189H242.712C241.692 189 240.732 188.74 239.932 188.2C238.632 187.36 238.092 186.16 238.372 184.82C238.752 183.12 240.452 181.64 242.332 181.36C243.792 181.16 244.952 181.36 245.832 181.68C245.832 181.68 245.852 181.68 245.872 181.68L245.892 181.7C246.532 181.96 247.012 182.28 247.332 182.54C247.252 181.02 246.972 179.24 246.212 178.36C245.952 178.06 245.672 177.9 245.352 177.84C245.292 177.82 245.252 177.82 245.192 177.82C242.532 177.64 240.992 181.34 240.992 181.38L240.952 181.48L238.812 180.4L238.872 180.3C238.892 180.28 240.372 177.56 244.572 177.56C244.792 177.58 244.992 177.58 245.192 177.6C245.272 177.62 245.332 177.62 245.412 177.64ZM245.052 188.8H247.332V182.8C247.032 182.54 246.532 182.16 245.772 181.88C245.692 181.86 245.612 181.84 245.552 181.84C244.612 181.66 243.712 181.7 242.952 181.96C241.692 182.34 240.792 183.54 240.632 185C240.572 185.54 240.632 186.1 240.812 186.58C241.072 187.3 241.652 187.86 242.612 188.3C243.372 188.64 244.212 188.8 245.052 188.8ZM256.496 186.1L257.756 187.52L257.716 187.6C256.776 188.86 255.376 189 254.776 189C254.636 189 254.536 189 254.516 189C252.616 189 251.076 187.44 251.076 185.54V175H252.996V180.56H255.736V181.9L252.996 180.78V185.82C252.996 187.12 253.276 188.56 253.816 188.72C253.836 188.72 253.836 188.72 253.856 188.72C255.776 188.92 256.456 186.32 256.456 186.28L256.496 186.1ZM268.102 184L268.122 183.84L270.102 184.92L270.062 185C269.242 187.4 266.862 189 264.122 189C260.682 189 257.902 186.42 257.902 183.26C257.902 180.08 260.682 177.52 264.122 177.52C265.682 177.52 267.182 178.04 268.342 179.02C269.482 179.98 270.202 181.3 270.342 182.72V182.84H261.142V182.64H268.102C267.882 179.86 266.142 177.72 264.122 177.72C261.922 177.72 260.122 180.2 260.122 183.26C260.122 186.32 261.922 188.8 264.122 188.8C266.122 188.8 267.842 186.74 268.102 184ZM173.59 203L173.61 202.84L175.59 203.92L175.55 204C174.73 206.4 172.35 208 169.61 208C166.17 208 163.39 205.42 163.39 202.26C163.39 199.08 166.17 196.52 169.61 196.52C171.17 196.52 172.67 197.04 173.83 198.02C174.97 198.98 175.69 200.3 175.83 201.72V201.84H166.63V201.64H173.59C173.37 198.86 171.63 196.72 169.61 196.72C167.41 196.72 165.61 199.2 165.61 202.26C165.61 205.32 167.41 207.8 169.61 207.8C171.61 207.8 173.33 205.74 173.59 203ZM183.09 196.56C186.65 196.56 186.69 200.48 186.69 200.52V208H184.55V199.78C184.55 199 184.25 198.28 183.71 197.78C183.03 197.16 182.23 197.04 181.31 197.42C180.65 197.68 180.11 198.16 179.71 198.74C179.51 199.06 179.33 199.34 179.23 199.6V208H177.31V196.56H179.23V199.14C179.45 198.74 179.77 198.26 180.19 197.82C180.19 197.8 180.21 197.8 180.21 197.8C180.89 197.12 181.83 196.56 183.09 196.56ZM195.681 196.62C197.461 200.64 196.481 203.98 195.361 206.08C195.221 206.34 195.081 206.6 194.921 206.84C194.441 207.58 193.661 208 192.801 208H190.541L187.661 196.56H189.581L192.421 207.8H192.801C193.581 207.8 194.321 207.4 194.741 206.74C195.041 206.28 195.221 205.74 195.301 205.2C196.041 199.64 193.061 196.78 193.021 196.74L192.841 196.56H195.641L195.681 196.62ZM200.284 208H198.364V196.52H200.284V208ZM199.324 195.9C199.324 194.9 198.504 194.1 197.524 194.1C198.504 194.1 199.324 193.28 199.324 192.3C199.324 193.28 200.124 194.1 201.124 194.1C200.124 194.1 199.324 194.9 199.324 195.9ZM210.148 197.26L210.208 197.32L209.488 199.26L209.368 199.14C209.308 199.08 208.448 198.2 207.248 197.94C206.048 197.7 204.848 198.32 204.308 199.4V208H202.388V196.56H204.308V198.98C204.668 198.36 205.548 197.14 206.928 196.72C207.948 196.4 209.028 196.6 210.148 197.26ZM216.427 196.56C219.767 196.62 222.467 199.16 222.467 202.28C222.467 205.42 219.767 207.96 216.427 208C216.407 208 216.367 208 216.327 208C216.307 208 216.267 208 216.227 208C212.887 207.96 210.207 205.42 210.207 202.28C210.207 199.16 212.887 196.62 216.227 196.56C216.267 196.56 216.307 196.56 216.327 196.56C216.367 196.56 216.407 196.56 216.427 196.56ZM216.427 207.8C218.527 207.72 220.207 205.28 220.207 202.28C220.207 199.3 218.527 196.84 216.427 196.78C216.407 196.78 216.367 196.78 216.327 196.78C216.307 196.78 216.267 196.78 216.227 196.78C214.147 196.84 212.447 199.3 212.447 202.28C212.447 205.28 214.147 207.72 216.227 207.8C216.267 207.8 216.307 207.8 216.327 207.8C216.367 207.8 216.407 207.8 216.427 207.8ZM229.789 196.56C233.349 196.56 233.389 200.48 233.389 200.52V208H231.249V199.78C231.249 199 230.949 198.28 230.409 197.78C229.729 197.16 228.929 197.04 228.009 197.42C227.349 197.68 226.809 198.16 226.409 198.74C226.209 199.06 226.029 199.34 225.929 199.6V208H224.009V196.56H225.929V199.14C226.149 198.74 226.469 198.26 226.889 197.82C226.889 197.8 226.909 197.8 226.909 197.8C227.589 197.12 228.529 196.56 229.789 196.56ZM245.156 196.56C248.736 196.56 248.776 200.48 248.776 200.52V208H246.636V199.78C246.636 199 246.336 198.28 245.776 197.78C244.896 196.94 243.756 197.02 242.396 197.98C242.376 198 242.376 198 242.356 198.02C243.096 199.14 243.096 200.46 243.096 200.52V208H240.956V199.78C240.956 199 240.656 198.28 240.116 197.78C239.336 197.06 238.376 197.02 237.276 197.64V208H235.356V196.56H237.276V197.26C237.936 196.8 238.676 196.56 239.496 196.56C240.676 196.56 241.616 197 242.236 197.84C242.256 197.84 242.256 197.84 242.256 197.82C243.076 196.98 244.056 196.56 245.156 196.56ZM260.367 203L260.387 202.84L262.367 203.92L262.327 204C261.507 206.4 259.127 208 256.387 208C252.947 208 250.167 205.42 250.167 202.26C250.167 199.08 252.947 196.52 256.387 196.52C257.947 196.52 259.447 197.04 260.607 198.02C261.747 198.98 262.467 200.3 262.607 201.72V201.84H253.407V201.64H260.367C260.147 198.86 258.407 196.72 256.387 196.72C254.187 196.72 252.387 199.2 252.387 202.26C252.387 205.32 254.187 207.8 256.387 207.8C258.387 207.8 260.107 205.74 260.367 203ZM269.867 196.56C273.427 196.56 273.467 200.48 273.467 200.52V208H271.327V199.78C271.327 199 271.027 198.28 270.487 197.78C269.807 197.16 269.007 197.04 268.087 197.42C267.427 197.68 266.887 198.16 266.487 198.74C266.287 199.06 266.107 199.34 266.007 199.6V208H264.087V196.56H266.007V199.14C266.227 198.74 266.547 198.26 266.967 197.82C266.967 197.8 266.987 197.8 266.987 197.8C267.667 197.12 268.607 196.56 269.867 196.56ZM280.735 205.1L281.995 206.52L281.955 206.6C281.015 207.86 279.615 208 279.015 208C278.875 208 278.775 208 278.755 208C276.855 208 275.315 206.44 275.315 204.54V194H277.235V199.56H279.975V200.9L277.235 199.78V204.82C277.235 206.12 277.515 207.56 278.055 207.72C278.075 207.72 278.075 207.72 278.095 207.72C280.015 207.92 280.695 205.32 280.695 205.28L280.735 205.1Z" fill="#FF822E"/>
<path d="M286.279 195.753L286.139 196L286.279 196.247L375.669 353.669L218.247 264.278L218 264.139L217.753 264.278L60.3291 353.669L149.711 196.247L149.852 196L149.711 195.753L60.3291 38.3291L217.753 127.711L218 127.852L218.247 127.711L375.669 38.3291L286.279 195.753Z" stroke="#FF822E"/>
<path d="M307.072 362.044C301.183 361.477 296.523 356.819 295.956 350.935L295 341L294.044 350.935C293.477 356.82 288.817 361.478 282.928 362.044L273 363L282.928 363.956C288.817 364.523 293.477 369.181 294.044 375.065L295 385L295.956 375.065C296.523 369.18 301.183 364.522 307.072 363.956L317 363L307.072 362.044Z" fill="#FF822E"/>
</svg>
