<svg width="428" height="428" viewBox="0 0 428 428" fill="none" xmlns="http://www.w3.org/2000/svg">
<rect width="428" height="428" fill="white"/>
<path d="M217.502 72.9984L217.507 73.0419L217.518 73.0847C235.793 139.381 286.536 191.297 352.598 210.097L354.161 210.535L369.877 214.867L354.162 219.2C287.336 237.622 236.437 289.835 218.018 356.65L218.007 356.689L218.003 356.731L212.438 408.745L208.062 356.742L208.059 356.695L208.046 356.65L207.608 355.087C188.957 289.536 137.71 238.289 72.1591 219.638L70.5957 219.2L54.8812 214.867L70.5964 210.535C136.895 192.258 188.81 140.719 207.609 74.6481L208.046 73.0847L208.059 73.0392L208.062 72.9915L212.418 18.7673L217.502 72.9984Z" stroke="#FF822E"/>
<path d="M163.995 207H162.075V195.52H163.995V207ZM163.035 194.9C163.035 193.9 162.215 193.1 161.235 193.1C162.215 193.1 163.035 192.28 163.035 191.3C163.035 192.28 163.835 193.1 164.835 193.1C163.835 193.1 163.035 193.9 163.035 194.9ZM175.899 195.56C179.479 195.56 179.519 199.48 179.519 199.52V207H177.379V198.78C177.379 198 177.079 197.28 176.519 196.78C175.639 195.94 174.499 196.02 173.139 196.98C173.119 197 173.119 197 173.099 197.02C173.839 198.14 173.839 199.46 173.839 199.52V207H171.699V198.78C171.699 198 171.399 197.28 170.859 196.78C170.079 196.06 169.119 196.02 168.019 196.64V207H166.099V195.56H168.019V196.26C168.679 195.8 169.419 195.56 170.239 195.56C171.419 195.56 172.359 196 172.979 196.84C172.999 196.84 172.999 196.84 172.999 196.82C173.819 195.98 174.799 195.56 175.899 195.56ZM191.27 195.56C194.85 195.56 194.89 199.48 194.89 199.52V207H192.75V198.78C192.75 198 192.45 197.28 191.89 196.78C191.01 195.94 189.87 196.02 188.51 196.98C188.49 197 188.49 197 188.47 197.02C189.21 198.14 189.21 199.46 189.21 199.52V207H187.07V198.78C187.07 198 186.77 197.28 186.23 196.78C185.45 196.06 184.49 196.02 183.39 196.64V207H181.47V195.56H183.39V196.26C184.05 195.8 184.79 195.56 185.61 195.56C186.79 195.56 187.73 196 188.35 196.84C188.37 196.84 188.37 196.84 188.37 196.82C189.19 195.98 190.17 195.56 191.27 195.56ZM206.481 202L206.501 201.84L208.481 202.92L208.441 203C207.621 205.4 205.241 207 202.501 207C199.061 207 196.281 204.42 196.281 201.26C196.281 198.08 199.061 195.52 202.501 195.52C204.061 195.52 205.561 196.04 206.721 197.02C207.861 197.98 208.581 199.3 208.721 200.72V200.84H199.521V200.64H206.481C206.261 197.86 204.521 195.72 202.501 195.72C200.301 195.72 198.501 198.2 198.501 201.26C198.501 204.32 200.301 206.8 202.501 206.8C204.501 206.8 206.221 204.74 206.481 202ZM217.96 196.26L218.02 196.32L217.3 198.26L217.18 198.14C217.12 198.08 216.26 197.2 215.06 196.94C213.86 196.7 212.66 197.32 212.12 198.4V207H210.2V195.56H212.12V197.98C212.48 197.36 213.36 196.14 214.74 195.72C215.76 195.4 216.84 195.6 217.96 196.26ZM229.248 203.12C229.368 204.76 228.288 205.7 227.368 206.18C227.348 206.18 227.348 206.18 227.348 206.18C226.528 206.62 225.508 206.8 224.548 206.8C223.868 206.8 223.208 206.72 222.708 206.56C220.428 205.86 219.328 204.34 218.808 203.18L218.788 203.1L220.908 202.5L220.948 202.56C220.948 202.58 221.488 203.7 222.548 204.66C223.628 205.68 224.828 206.18 226.128 206.16C227.008 206.16 227.848 205.82 228.408 205.16C228.748 204.78 228.988 204.28 229.048 203.68C229.028 203.1 228.868 202.3 228.208 201.78C227.428 201.18 226.388 201.4 225.088 201.7C224.168 201.9 223.128 202.12 221.948 202.12H221.928C220.448 202.12 219.608 201.62 219.148 201.12C218.668 200.62 218.568 200.12 218.548 200.12C218.328 199.4 218.508 198.48 219.148 197.76C220.128 196.54 221.348 195.86 222.748 195.7C225.608 195.38 228.328 197.48 228.348 197.5L228.428 197.56L226.848 199.1L226.788 199.04C226.748 199 223.348 195.7 220.108 197.24C219.788 197.4 219.508 197.62 219.288 197.86C219.268 197.88 219.248 197.9 219.248 197.92H219.228C218.628 198.64 218.488 199.54 218.788 200.2C219.168 201.08 220.048 201.16 221.448 200.86C223.848 200.32 226.568 199.7 228.028 200.68C228.688 201.14 229.168 202.1 229.248 203.12ZM232.706 207H230.786V195.52H232.706V207ZM231.746 194.9C231.746 193.9 230.926 193.1 229.946 193.1C230.926 193.1 231.746 192.28 231.746 191.3C231.746 192.28 232.546 193.1 233.546 193.1C232.546 193.1 231.746 193.9 231.746 194.9ZM242.01 195.62C243.79 199.64 242.81 202.98 241.69 205.08C241.55 205.34 241.41 205.6 241.25 205.84C240.77 206.58 239.99 207 239.13 207H236.87L233.99 195.56H235.91L238.75 206.8H239.13C239.91 206.8 240.65 206.4 241.07 205.74C241.37 205.28 241.55 204.74 241.63 204.2C242.37 198.64 239.39 195.78 239.35 195.74L239.17 195.56H241.97L242.01 195.62ZM254.332 202L254.352 201.84L256.332 202.92L256.292 203C255.472 205.4 253.092 207 250.352 207C246.912 207 244.132 204.42 244.132 201.26C244.132 198.08 246.912 195.52 250.352 195.52C251.912 195.52 253.412 196.04 254.572 197.02C255.712 197.98 256.432 199.3 256.572 200.72V200.84H247.372V200.64H254.332C254.112 197.86 252.372 195.72 250.352 195.72C248.152 195.72 246.352 198.2 246.352 201.26C246.352 204.32 248.152 206.8 250.352 206.8C252.352 206.8 254.072 204.74 254.332 202ZM164.645 221L164.665 220.84L166.645 221.92L166.605 222C165.785 224.4 163.405 226 160.665 226C157.225 226 154.445 223.42 154.445 220.26C154.445 217.08 157.225 214.52 160.665 214.52C162.225 214.52 163.725 215.04 164.885 216.02C166.025 216.98 166.745 218.3 166.885 219.72V219.84H157.685V219.64H164.645C164.425 216.86 162.685 214.72 160.665 214.72C158.465 214.72 156.665 217.2 156.665 220.26C156.665 223.32 158.465 225.8 160.665 225.8C162.665 225.8 164.385 223.74 164.645 221ZM176.247 219.72L174.987 221.44L178.087 226H176.167L172.707 220.92C172.427 220.5 171.927 220.24 171.407 220.3C170.967 220.34 170.587 220.56 170.307 220.88L170.247 220.98C169.307 222.38 169.107 225.02 169.067 226H166.327L170.107 220.86C170.127 220.84 170.147 220.8 170.167 220.78L171.447 219.06L168.387 214.58H170.307L173.727 219.6C174.007 220.02 174.507 220.26 175.007 220.22C175.007 220.22 175.007 220.22 175.027 220.22C175.447 220.16 175.847 219.96 176.107 219.62L176.167 219.54C176.167 219.52 176.167 219.52 176.167 219.52C177.087 218.16 177.287 215.6 177.347 214.58H180.047L176.327 219.64C176.287 219.66 176.267 219.7 176.247 219.72ZM186.64 214.46C189.8 214.46 192.38 217.02 192.38 220.18C192.38 223.34 189.8 225.9 186.64 225.9C185.3 225.9 184 225.42 182.98 224.56V228.46H181.06V214.46H186.64ZM188.64 224.32C189.8 223.3 190.52 221.82 190.52 220.18C190.52 217.46 188.5 215.12 185.8 214.72C185.54 214.68 185.28 214.66 185 214.66H182.98V224.3C184.58 225.72 187.02 225.74 188.64 224.32ZM203.571 221L203.591 220.84L205.571 221.92L205.531 222C204.711 224.4 202.331 226 199.591 226C196.151 226 193.371 223.42 193.371 220.26C193.371 217.08 196.151 214.52 199.591 214.52C201.151 214.52 202.651 215.04 203.811 216.02C204.951 216.98 205.671 218.3 205.811 219.72V219.84H196.611V219.64H203.571C203.351 216.86 201.611 214.72 199.591 214.72C197.391 214.72 195.591 217.2 195.591 220.26C195.591 223.32 197.391 225.8 199.591 225.8C201.591 225.8 203.311 223.74 203.571 221ZM215.05 215.26L215.11 215.32L214.39 217.26L214.27 217.14C214.21 217.08 213.35 216.2 212.15 215.94C210.95 215.7 209.75 216.32 209.21 217.4V226H207.29V214.56H209.21V216.98C209.57 216.36 210.45 215.14 211.83 214.72C212.85 214.4 213.93 214.6 215.05 215.26ZM218.194 226H216.274V214.52H218.194V226ZM217.234 213.9C217.234 212.9 216.414 212.1 215.434 212.1C216.414 212.1 217.234 211.28 217.234 210.3C217.234 211.28 218.034 212.1 219.034 212.1C218.034 212.1 217.234 212.9 217.234 213.9ZM229.938 221L229.958 220.84L231.938 221.92L231.898 222C231.078 224.4 228.698 226 225.958 226C222.518 226 219.738 223.42 219.738 220.26C219.738 217.08 222.518 214.52 225.958 214.52C227.518 214.52 229.018 215.04 230.178 216.02C231.318 216.98 232.038 218.3 232.178 219.72V219.84H222.978V219.64H229.938C229.718 216.86 227.978 214.72 225.958 214.72C223.758 214.72 221.958 217.2 221.958 220.26C221.958 223.32 223.758 225.8 225.958 225.8C227.958 225.8 229.678 223.74 229.938 221ZM239.437 214.56C242.997 214.56 243.037 218.48 243.037 218.52V226H240.897V217.78C240.897 217 240.597 216.28 240.057 215.78C239.377 215.16 238.577 215.04 237.657 215.42C236.997 215.68 236.457 216.16 236.057 216.74C235.857 217.06 235.677 217.34 235.577 217.6V226H233.657V214.56H235.577V217.14C235.797 216.74 236.117 216.26 236.537 215.82C236.537 215.8 236.557 215.8 236.557 215.8C237.237 215.12 238.177 214.56 239.437 214.56ZM254.925 221.74L254.945 221.6L257.285 222.8L257.245 222.88C256.085 224.82 253.765 226.02 251.185 226.02C247.445 226.02 244.425 223.46 244.425 220.3C244.425 217.16 247.445 214.58 251.185 214.58C253.765 214.58 256.085 215.8 257.245 217.74L257.285 217.82L254.945 219.02L254.925 218.86C254.485 216.52 252.985 214.86 251.285 214.8C251.245 214.8 251.225 214.8 251.185 214.8C249.065 214.8 246.905 217.26 246.905 220.3C246.905 223.34 249.065 225.82 251.185 225.82C251.225 225.82 251.245 225.82 251.285 225.82C252.985 225.76 254.485 224.08 254.925 221.74ZM268.356 221L268.376 220.84L270.356 221.92L270.316 222C269.496 224.4 267.116 226 264.376 226C260.936 226 258.156 223.42 258.156 220.26C258.156 217.08 260.936 214.52 264.376 214.52C265.936 214.52 267.436 215.04 268.596 216.02C269.736 216.98 270.456 218.3 270.596 219.72V219.84H261.396V219.64H268.356C268.136 216.86 266.396 214.72 264.376 214.72C262.176 214.72 260.376 217.2 260.376 220.26C260.376 223.32 262.176 225.8 264.376 225.8C266.376 225.8 268.096 223.74 268.356 221Z" fill="#FF822E"/>
<path d="M98.0718 373.891C92.1828 373.247 87.523 367.959 86.9563 361.279L86 350L85.0437 361.279C84.477 367.961 79.8172 373.248 73.9282 373.891L64 374.976L73.9282 376.061C79.8172 376.705 84.477 381.993 85.0437 388.673L86 399.952L86.9563 388.673C87.523 381.992 92.1828 376.704 98.0718 376.061L108 374.976L98.0718 373.891Z" fill="#FF822E"/>
<path d="M378.072 272.517C372.183 271.873 367.523 266.585 366.956 259.905L366 248.626L365.044 259.905C364.477 266.587 359.817 271.874 353.928 272.517L344 273.602L353.928 274.687C359.817 275.331 364.477 280.619 365.044 287.299L366 298.578L366.956 287.299C367.523 280.618 372.183 275.33 378.072 274.687L388 273.602L378.072 272.517Z" fill="#FF822E"/>
</svg>
