<svg width="43" height="39" viewBox="0 0 43 39" fill="none" xmlns="http://www.w3.org/2000/svg">
<path d="M8.05377 1.29166H0.678772M8.64377 1.29166L13.9538 20.565C14.397 22.0849 15.3175 23.4218 16.5792 24.378C17.841 25.3343 19.3769 25.8591 20.96 25.875H42.4459V1.29166H8.64377ZM25.2621 34.4792C25.2621 36.5157 23.6112 38.1667 21.5746 38.1667C19.5381 38.1667 17.8871 36.5157 17.8871 34.4792C17.8871 32.4426 19.5381 30.7917 21.5746 30.7917C23.6112 30.7917 25.2621 32.4426 25.2621 34.4792ZM42.4704 34.4792C42.4704 36.5157 40.8195 38.1667 38.7829 38.1667C36.7464 38.1667 35.0954 36.5157 35.0954 34.4792C35.0954 32.4426 36.7464 30.7917 38.7829 30.7917C40.8195 30.7917 42.4704 32.4426 42.4704 34.4792Z" stroke="white" stroke-linecap="round" stroke-linejoin="round"/>
</svg>
