<svg width="36" height="36" viewBox="0 0 36 36" fill="none" xmlns="http://www.w3.org/2000/svg">
<path d="M15.135 20.865C15.132 21.4359 15.2988 21.9948 15.6141 22.4707C15.9294 22.9466 16.379 23.318 16.9059 23.5379C17.4328 23.7577 18.0131 23.816 18.5732 23.7053C19.1332 23.5947 19.6477 23.3201 20.0514 22.9164C20.4551 22.5127 20.7297 21.9982 20.8403 21.4382C20.951 20.8781 20.8927 20.2978 20.6728 19.7709C20.453 19.2441 20.0816 18.7944 19.6057 18.4791C19.1297 18.1638 18.5709 17.997 18 18C17.4304 18 16.8735 17.8311 16.3999 17.5146C15.9263 17.1982 15.5572 16.7484 15.3392 16.2221C15.1212 15.6959 15.0642 15.1168 15.1753 14.5581C15.2865 13.9995 15.5608 13.4863 15.9635 13.0835C16.3663 12.6808 16.8795 12.4065 17.4381 12.2953C17.9968 12.1842 18.5759 12.2412 19.1021 12.4592C19.6284 12.6772 20.0782 13.0463 20.3946 13.5199C20.7111 13.9936 20.88 14.5504 20.88 15.12M18.075 10.755V12.255M18.075 23.745V25.245M31.5 18C31.5 25.4558 25.4558 31.5 18 31.5C10.5442 31.5 4.5 25.4558 4.5 18C4.5 10.5442 10.5442 4.5 18 4.5C25.4558 4.5 31.5 10.5442 31.5 18Z" stroke="#FF822E" stroke-linecap="round" stroke-linejoin="round"/>
</svg>
