<svg width="55" height="55" viewBox="0 0 55 55" fill="none" xmlns="http://www.w3.org/2000/svg">
<path fill-rule="evenodd" clip-rule="evenodd" d="M27.5 5.5C15.3497 5.5 5.5 15.3497 5.5 27.5C5.5 39.6503 15.3497 49.5 27.5 49.5C39.6503 49.5 49.5 39.6503 49.5 27.5C49.5 15.3497 39.6503 5.5 27.5 5.5ZM0 27.5C0 12.3122 12.3122 0 27.5 0C42.6878 0 55 12.3122 55 27.5C55 42.6878 42.6878 55 27.5 55C12.3122 55 0 42.6878 0 27.5ZM22.8055 17.3055C23.8794 16.2315 25.6206 16.2315 26.6945 17.3055L34.9445 25.5555C36.0185 26.6294 36.0185 28.3706 34.9445 29.4445L26.6945 37.6945C25.6206 38.7685 23.8794 38.7685 22.8055 37.6945C21.7315 36.6206 21.7315 34.8794 22.8055 33.8055L29.1109 27.5L22.8055 21.1945C21.7315 20.1206 21.7315 18.3794 22.8055 17.3055Z" fill="#FF822E"/>
</svg>
