<svg width="57" height="35" viewBox="0 0 57 35" fill="none" xmlns="http://www.w3.org/2000/svg">
<path fill-rule="evenodd" clip-rule="evenodd" d="M20.4867 7.30066C21.7776 6.71209 23.2331 6.59103 24.6035 6.95824C25.2704 7.13691 25.6661 7.82233 25.4874 8.48917C25.3087 9.156 24.6233 9.55173 23.9565 9.37305C23.1467 9.15607 22.2866 9.2276 21.5238 9.57539C20.761 9.92318 20.143 10.5255 19.7757 11.2792C19.4084 12.0328 19.3148 12.8907 19.5109 13.7058C19.707 14.5209 20.1806 15.2424 20.8505 15.7465C21.2139 16.02 21.4001 16.4693 21.3367 16.9197C21.2732 17.37 20.9702 17.7504 20.5454 17.9128C19.6962 18.2375 18.9161 18.7391 18.2609 19.3943C18.0401 19.615 17.8369 19.8499 17.652 20.0968C17.2667 20.6111 17.2918 21.042 17.4946 21.4279C17.734 21.8835 18.2841 22.3559 19.0623 22.6007C19.7209 22.8079 20.0868 23.5096 19.8796 24.1682C19.6725 24.8267 18.9707 25.1926 18.3122 24.9855C17.0349 24.5837 15.8865 23.742 15.2815 22.5908C14.6399 21.3699 14.6749 19.9012 15.651 18.598C15.9068 18.2565 16.1879 17.9317 16.4931 17.6265C16.9636 17.156 17.4807 16.7428 18.0336 16.3914C17.5886 15.7626 17.2632 15.0507 17.0803 14.2907C16.7484 12.9113 16.9068 11.4594 17.5283 10.184C18.1499 8.90861 19.1958 7.88922 20.4867 7.30066ZM36.4758 9.57539C35.713 9.2276 34.8529 9.15607 34.0431 9.37305C33.3763 9.55173 32.6909 9.156 32.5122 8.48917C32.3335 7.82233 32.7293 7.13691 33.3961 6.95824C34.7665 6.59103 36.222 6.71209 37.5129 7.30066C38.8038 7.88922 39.8498 8.90861 40.4713 10.184C41.0928 11.4594 41.2512 12.9113 40.9193 14.2907C40.7365 15.0507 40.4111 15.7626 39.9661 16.3914C40.5189 16.7428 41.036 17.156 41.5065 17.6265C41.8117 17.9317 42.0928 18.2565 42.3486 18.598C43.3247 19.9012 43.3597 21.3699 42.7181 22.5908C42.1132 23.742 40.9647 24.5837 39.6875 24.9855C39.0289 25.1926 38.3271 24.8267 38.12 24.1682C37.9128 23.5096 38.2787 22.8079 38.9373 22.6007C39.7155 22.3559 40.2656 21.8835 40.5051 21.4279C40.7078 21.042 40.733 20.6111 40.3477 20.0968C40.1628 19.8499 39.9595 19.615 39.7388 19.3943C39.0836 18.7391 38.3035 18.2375 37.4543 17.9128C37.0294 17.7504 36.7264 17.37 36.6629 16.9197C36.5995 16.4693 36.7857 16.02 37.1491 15.7465C37.819 15.2424 38.2926 14.5209 38.4887 13.7058C38.6848 12.8907 38.5912 12.0328 38.2239 11.2792C37.8567 10.5255 37.2386 9.92318 36.4758 9.57539ZM29 11.75C27.0056 11.75 25.3889 13.3668 25.3889 15.3611C25.3889 17.3555 27.0057 18.9723 29 18.9723C30.9943 18.9723 32.6111 17.3555 32.6111 15.3611C32.6111 13.3668 30.9943 11.75 29 11.75ZM33.0542 19.9338C34.316 18.8143 35.1111 17.1806 35.1111 15.3611C35.1111 11.986 32.375 9.25 29 9.25C25.6249 9.25 22.8889 11.986 22.8889 15.3611C22.8889 17.1806 23.684 18.8143 24.9457 19.9339C24.0923 20.3628 23.3045 20.9284 22.6164 21.6165C22.3112 21.9216 22.0301 22.2464 21.7743 22.5879C21.201 23.3533 20.9311 24.2063 20.9786 25.0672C21.0254 25.9148 21.3741 26.6737 21.8725 27.2864C22.8534 28.492 24.4981 29.2501 26.2222 29.2501H31.7778C33.5019 29.2501 35.1466 28.492 36.1275 27.2864C36.6259 26.6737 36.9746 25.9148 37.0214 25.0672C37.0689 24.2064 36.7989 23.3533 36.2257 22.5879C35.9699 22.2464 35.6888 21.9216 35.3836 21.6165C34.6955 20.9284 33.9077 20.3628 33.0542 19.9338ZM29 21.4723C27.2687 21.4723 25.6084 22.16 24.3842 23.3842C24.1634 23.605 23.9602 23.8398 23.7753 24.0867C23.5208 24.4264 23.4626 24.7088 23.4748 24.9294C23.4877 25.1632 23.5866 25.4319 23.8118 25.7086C24.2782 26.2819 25.185 26.7501 26.2222 26.7501H31.7778C32.815 26.7501 33.7218 26.2819 34.1882 25.7086C34.4134 25.4319 34.5123 25.1632 34.5252 24.9294C34.5374 24.7088 34.4792 24.4264 34.2247 24.0867C34.0398 23.8398 33.8366 23.605 33.6158 23.3842C32.3916 22.16 30.7313 21.4723 29 21.4723Z" fill="#FF822E"/>
</svg>
