<svg width="1440" height="103" viewBox="0 0 1440 103" fill="none" xmlns="http://www.w3.org/2000/svg">
<rect width="1444" height="103" fill="white"/>
<path d="M54.2221 49.9544C48.3168 49.3519 43.6441 44.4062 43.0757 38.1582L42.1168 27.6083L41.1579 38.1582C40.5895 44.4072 35.9168 49.3529 30.0114 49.9544L20.0557 50.9691L30.0114 51.9838C35.9168 52.5863 40.5895 57.532 41.1579 63.78L42.1168 74.3299L43.0757 63.78C43.6441 57.531 48.3168 52.5853 54.2221 51.9838L64.1779 50.9691L54.2221 49.9544Z" fill="#FF822E"/>
<path d="M623.8 50.01C617.894 49.4075 613.222 44.4618 612.653 38.2139L611.694 27.6639L610.735 38.2139C610.167 44.4629 605.494 49.4086 599.589 50.01L589.633 51.0248L599.589 52.0395C605.494 52.642 610.167 57.5877 610.735 63.8356L611.694 74.3856L612.653 63.8356C613.222 57.5866 617.894 52.6409 623.8 52.0395L633.756 51.0248L623.8 50.01Z" fill="#FF822E"/>
<path d="M339.011 50.01C333.106 49.4075 328.433 44.4618 327.865 38.2139L326.906 27.6639L325.947 38.2139C325.378 44.4629 320.706 49.4086 314.8 50.01L304.844 51.0248L314.8 52.0395C320.706 52.642 325.378 57.5877 325.947 63.8356L326.906 74.3856L327.865 63.8356C328.433 57.5866 333.106 52.6409 339.011 52.0395L348.967 51.0248L339.011 50.01Z" fill="#FF822E"/>
<path d="M908.589 50.0658C902.683 49.4633 898.011 44.5176 897.442 38.2697L896.483 27.7197L895.524 38.2697C894.956 44.5187 890.283 49.4644 884.378 50.0658L874.422 51.0806L884.378 52.0953C890.283 52.6978 894.956 57.6435 895.524 63.8914L896.483 74.4414L897.442 63.8914C898.011 57.6424 902.683 52.6967 908.589 52.0953L918.544 51.0806L908.589 50.0658Z" fill="#FF822E"/>
<path d="M1193.38 50.01C1187.47 49.4075 1182.8 44.4618 1182.23 38.2139L1181.27 27.6639L1180.31 38.2139C1179.74 44.4629 1175.07 49.4086 1169.17 50.01L1159.21 51.0248L1169.17 52.0395C1175.07 52.642 1179.74 57.5877 1180.31 63.8356L1181.27 74.3856L1182.23 63.8356C1182.8 57.5866 1187.47 52.6409 1193.38 52.0395L1203.33 51.0248L1193.38 50.01Z" fill="#FF822E"/>
<path d="M196.616 50.01C190.711 49.4075 186.038 44.4618 185.47 38.2139L184.511 27.6639L183.552 38.2139C182.984 44.4629 178.311 49.4086 172.406 50.01L162.45 51.0248L172.406 52.0395C178.311 52.642 182.984 57.5877 183.552 63.8356L184.511 74.3856L185.47 63.8356C186.038 57.5866 190.711 52.6409 196.616 52.0395L206.572 51.0248L196.616 50.01Z" fill="#FF822E"/>
<path d="M766.194 50.0658C760.289 49.4633 755.616 44.5176 755.048 38.2697L754.089 27.7197L753.13 38.2697C752.562 44.5187 747.889 49.4644 741.984 50.0658L732.028 51.0806L741.984 52.0953C747.889 52.6978 752.562 57.6435 753.13 63.8914L754.089 74.4414L755.048 63.8914C755.616 57.6424 760.289 52.6967 766.194 52.0953L776.15 51.0806L766.194 50.0658Z" fill="#FF822E"/>
<path d="M481.405 50.0658C475.5 49.4633 470.827 44.5176 470.259 38.2697L469.3 27.7197L468.341 38.2697C467.773 44.5187 463.1 49.4644 457.195 50.0658L447.239 51.0806L457.195 52.0953C463.1 52.6978 467.773 57.6435 468.341 63.8914L469.3 74.4414L470.259 63.8914C470.827 57.6424 475.5 52.6967 481.405 52.0953L491.361 51.0806L481.405 50.0658Z" fill="#FF822E"/>
<path d="M1050.98 50.1216C1045.08 49.5191 1040.41 44.5734 1039.84 38.3255L1038.88 27.7755L1037.92 38.3255C1037.35 44.5745 1032.68 49.5202 1026.77 50.1216L1016.82 51.1363L1026.77 52.1511C1032.68 52.7535 1037.35 57.6993 1037.92 63.9472L1038.88 74.4972L1039.84 63.9472C1040.41 57.6982 1045.08 52.7525 1050.98 52.1511L1060.94 51.1363L1050.98 50.1216Z" fill="#FF822E"/>
<path d="M1335.77 50.0658C1329.87 49.4633 1325.19 44.5176 1324.63 38.2697L1323.67 27.7197L1322.71 38.2697C1322.14 44.5187 1317.47 49.4644 1311.56 50.0658L1301.61 51.0806L1311.56 52.0953C1317.47 52.6978 1322.14 57.6435 1322.71 63.8914L1323.67 74.4414L1324.63 63.8914C1325.19 57.6424 1329.87 52.6967 1335.77 52.0953L1345.73 51.0806L1335.77 50.0658Z" fill="#FF822E"/>
<path d="M120.197 61.5629C117.737 55.8462 119.445 49.0882 124.271 45.443L132.419 39.2887L123.312 43.6843C117.917 46.2876 111.536 44.4753 108.091 39.3606L102.283 30.738L106.431 40.3753C108.891 46.092 107.183 52.85 102.357 56.4952L94.2085 62.6495L103.316 58.2539C108.711 55.6506 115.092 57.4629 118.537 62.5776L124.345 71.2002L120.197 61.5629Z" fill="#FF822E"/>
<path d="M689.774 61.6187C687.314 55.902 689.023 49.144 693.848 45.4988L701.997 39.3445L692.889 43.7401C687.495 46.3434 681.113 44.5311 677.669 39.4164L671.861 30.7938L676.009 40.4311C678.469 46.1478 676.761 52.9058 671.935 56.551L663.786 62.7053L672.894 58.3097C678.289 55.7064 684.67 57.5187 688.114 62.6334L693.922 71.256L689.774 61.6187Z" fill="#FF822E"/>
<path d="M404.985 61.6187C402.525 55.902 404.234 49.144 409.06 45.4988L417.208 39.3445L408.101 43.7401C402.706 46.3434 396.325 44.5311 392.88 39.4164L387.072 30.7938L391.22 40.4311C393.68 46.1478 391.972 52.9058 387.146 56.551L378.997 62.7053L388.105 58.3097C393.5 55.7064 399.881 57.5187 403.326 62.6334L409.133 71.256L404.985 61.6187Z" fill="#FF822E"/>
<path d="M974.563 61.6745C972.103 55.9578 973.812 49.1998 978.637 45.5546L986.786 39.4003L977.678 43.7959C972.284 46.3992 965.902 44.5869 962.458 39.4721L956.65 30.8496L960.798 40.4869C963.258 46.2036 961.549 52.9616 956.724 56.6067L948.575 62.7611L957.683 58.3655C963.078 55.7622 969.459 57.5744 972.903 62.6892L978.711 71.3117L974.563 61.6745Z" fill="#FF822E"/>
<path d="M1259.35 61.6187C1256.89 55.902 1258.6 49.144 1263.43 45.4988L1271.57 39.3445L1262.47 43.7401C1257.07 46.3434 1250.69 44.5311 1247.25 39.4164L1241.44 30.7938L1245.59 40.4311C1248.05 46.1478 1246.34 52.9058 1241.51 56.551L1233.36 62.7053L1242.47 58.3097C1247.87 55.7064 1254.25 57.5187 1257.69 62.6334L1263.5 71.256L1259.35 61.6187Z" fill="#FF822E"/>
<path d="M250.486 62.6334C253.931 57.5192 260.312 55.7069 265.706 58.3097L274.814 62.7053L266.665 56.551C261.839 52.9053 260.13 46.1473 262.591 40.4311L266.739 30.7938L260.931 39.4164C257.486 44.5306 251.105 46.3428 245.71 43.7401L236.603 39.3445L244.752 45.4988C249.578 49.1445 251.287 55.9025 248.826 61.6187L244.678 71.256L250.486 62.6334Z" fill="#FF822E"/>
<path d="M820.063 62.6891C823.509 57.5749 829.89 55.7626 835.284 58.3654L844.392 62.761L836.243 56.6066C831.416 52.9609 829.708 46.2029 832.169 40.4868L836.317 30.8495L830.509 39.472C827.063 44.5863 820.682 46.3985 815.288 43.7958L806.181 39.4001L814.329 45.5545C819.156 49.2002 820.864 55.9582 818.404 61.6744L814.256 71.3116L820.063 62.6891Z" fill="#FF822E"/>
<path d="M535.274 62.6891C538.72 57.5749 545.101 55.7626 550.495 58.3654L559.603 62.761L551.454 56.6066C546.627 52.9609 544.919 46.2029 547.38 40.4868L551.528 30.8495L545.72 39.472C542.275 44.5863 535.893 46.3985 530.499 43.7958L521.392 39.4001L529.541 45.5545C534.367 49.2002 536.075 55.9582 533.615 61.6744L529.467 71.3116L535.274 62.6891Z" fill="#FF822E"/>
<path d="M1104.85 62.7449C1108.3 57.6307 1114.68 55.8184 1120.07 58.4212L1129.18 62.8168L1121.03 56.6624C1116.21 53.0167 1114.5 46.2587 1116.96 40.5425L1121.11 30.9053L1115.3 39.5278C1111.85 44.642 1105.47 46.4543 1100.08 43.8515L1090.97 39.4559L1099.12 45.6103C1103.94 49.256 1105.65 56.014 1103.19 61.7302L1099.04 71.3674L1104.85 62.7449Z" fill="#FF822E"/>
<path d="M1389.64 62.6891C1393.09 57.5749 1399.47 55.7626 1404.86 58.3654L1413.97 62.761L1405.82 56.6066C1400.99 52.9609 1399.29 46.2029 1401.75 40.4868L1405.89 30.8495L1400.09 39.472C1396.64 44.5863 1390.26 46.3985 1384.87 43.7958L1375.76 39.4001L1383.91 45.5545C1388.73 49.2002 1390.44 55.9582 1387.98 61.6744L1383.83 71.3116L1389.64 62.6891Z" fill="#FF822E"/>
</svg>
