<svg width="293" height="103" viewBox="0 0 293 103" fill="none" xmlns="http://www.w3.org/2000/svg">
<rect width="293" height="103" fill="white"/>
<path d="M48.1665 50.8969C42.2611 50.2944 37.5884 45.3487 37.02 39.1007L36.0611 28.5508L35.1022 39.1007C34.5338 45.3497 29.8611 50.2954 23.9558 50.8969L14 51.9116L23.9558 52.9263C29.8611 53.5288 34.5338 58.4745 35.1022 64.7225L36.0611 75.2724L37.02 64.7225C37.5884 58.4735 42.2611 53.5278 48.1665 52.9263L58.1222 51.9116L48.1665 50.8969Z" fill="#FF822E"/>
<path d="M190.561 50.9525C184.655 50.3501 179.983 45.4043 179.414 39.1564L178.455 28.6064L177.496 39.1564C176.928 45.4054 172.255 50.3511 166.35 50.9525L156.394 51.9673L166.35 52.982C172.255 53.5845 176.928 58.5302 177.496 64.7781L178.455 75.3281L179.414 64.7781C179.983 58.5291 184.655 53.5834 190.561 52.982L200.517 51.9673L190.561 50.9525Z" fill="#FF822E"/>
<path d="M114.141 62.5053C111.681 56.7886 113.389 50.0306 118.215 46.3854L126.364 40.2311L117.256 44.6267C111.861 47.23 105.48 45.4177 102.036 40.303L96.2278 31.6804L100.376 41.3177C102.836 47.0344 101.127 53.7924 96.3016 57.4376L88.1528 63.5919L97.2605 59.1963C102.655 56.593 109.037 58.4053 112.481 63.52L118.289 72.1426L114.141 62.5053Z" fill="#FF822E"/>
<path d="M244.43 63.5757C247.875 58.4615 254.256 56.6492 259.65 59.252L268.758 63.6476L260.609 57.4932C255.783 53.8475 254.074 47.0895 256.535 41.3734L260.683 31.7361L254.875 40.3586C251.43 45.4729 245.049 47.2851 239.655 44.6823L230.547 40.2867L238.696 46.4411C243.522 50.0868 245.231 56.8448 242.77 62.561L238.622 72.1982L244.43 63.5757Z" fill="#FF822E"/>
</svg>
