<svg width="428" height="428" viewBox="0 0 428 428" fill="none" xmlns="http://www.w3.org/2000/svg">
<rect width="428" height="428" fill="white"/>
<path d="M176.49 195.62C178.27 199.64 177.29 202.98 176.17 205.08C176.03 205.34 175.89 205.6 175.73 205.84C175.25 206.58 174.47 207 173.61 207H171.35L168.47 195.56H170.39L173.23 206.8H173.61C174.39 206.8 175.13 206.4 175.55 205.74C175.85 205.28 176.03 204.74 176.11 204.2C176.85 198.64 173.87 195.78 173.83 195.74L173.65 195.56H176.45L176.49 195.62ZM185.733 195.64C189.573 196.2 189.573 199.66 189.573 199.7V207H183.033C182.013 207 181.053 206.74 180.253 206.2C178.953 205.36 178.413 204.16 178.693 202.82C179.073 201.12 180.773 199.64 182.653 199.36C184.113 199.16 185.273 199.36 186.153 199.68C186.153 199.68 186.173 199.68 186.193 199.68L186.213 199.7C186.853 199.96 187.333 200.28 187.653 200.54C187.573 199.02 187.293 197.24 186.533 196.36C186.273 196.06 185.993 195.9 185.673 195.84C185.613 195.82 185.573 195.82 185.513 195.82C182.853 195.64 181.313 199.34 181.313 199.38L181.273 199.48L179.133 198.4L179.193 198.3C179.213 198.28 180.693 195.56 184.893 195.56C185.113 195.58 185.313 195.58 185.513 195.6C185.593 195.62 185.653 195.62 185.733 195.64ZM185.373 206.8H187.653V200.8C187.353 200.54 186.853 200.16 186.093 199.88C186.013 199.86 185.933 199.84 185.873 199.84C184.933 199.66 184.033 199.7 183.273 199.96C182.013 200.34 181.113 201.54 180.953 203C180.893 203.54 180.953 204.1 181.133 204.58C181.393 205.3 181.973 205.86 182.933 206.3C183.693 206.64 184.533 206.8 185.373 206.8ZM199.277 196.26L199.337 196.32L198.617 198.26L198.497 198.14C198.437 198.08 197.577 197.2 196.377 196.94C195.177 196.7 193.977 197.32 193.437 198.4V207H191.517V195.56H193.437V197.98C193.797 197.36 194.677 196.14 196.057 195.72C197.077 195.4 198.157 195.6 199.277 196.26ZM202.421 207H200.501V195.52H202.421V207ZM201.461 194.9C201.461 193.9 200.641 193.1 199.661 193.1C200.641 193.1 201.461 192.28 201.461 191.3C201.461 192.28 202.261 193.1 203.261 193.1C202.261 193.1 201.461 193.9 201.461 194.9ZM214.164 202L214.184 201.84L216.164 202.92L216.124 203C215.304 205.4 212.924 207 210.184 207C206.744 207 203.964 204.42 203.964 201.26C203.964 198.08 206.744 195.52 210.184 195.52C211.744 195.52 213.244 196.04 214.404 197.02C215.544 197.98 216.264 199.3 216.404 200.72V200.84H207.204V200.64H214.164C213.944 197.86 212.204 195.72 210.184 195.72C207.984 195.72 206.184 198.2 206.184 201.26C206.184 204.32 207.984 206.8 210.184 206.8C212.184 206.8 213.904 204.74 214.164 202ZM223.184 204.1L224.444 205.52L224.404 205.6C223.464 206.86 222.064 207 221.464 207C221.324 207 221.224 207 221.204 207C219.304 207 217.764 205.44 217.764 203.54V193H219.684V198.56H222.424V199.9L219.684 198.78V203.82C219.684 205.12 219.964 206.56 220.504 206.72C220.524 206.72 220.524 206.72 220.544 206.72C222.464 206.92 223.144 204.32 223.144 204.28L223.184 204.1ZM231.731 195.58H233.671L227.371 209.58H225.411L227.311 205.4L223.271 195.56H226.251L226.191 195.7C226.191 195.74 225.171 198.52 227.051 204.28L227.411 205.16L231.731 195.58ZM247.391 195.56C250.731 195.62 253.431 198.16 253.431 201.28C253.431 204.42 250.731 206.96 247.391 207C247.371 207 247.331 207 247.291 207C247.271 207 247.231 207 247.191 207C243.851 206.96 241.171 204.42 241.171 201.28C241.171 198.16 243.851 195.62 247.191 195.56C247.231 195.56 247.271 195.56 247.291 195.56C247.331 195.56 247.371 195.56 247.391 195.56ZM247.391 206.8C249.491 206.72 251.171 204.28 251.171 201.28C251.171 198.3 249.491 195.84 247.391 195.78C247.371 195.78 247.331 195.78 247.291 195.78C247.271 195.78 247.231 195.78 247.191 195.78C245.111 195.84 243.411 198.3 243.411 201.28C243.411 204.28 245.111 206.72 247.191 206.8C247.231 206.8 247.271 206.8 247.291 206.8C247.331 206.8 247.371 206.8 247.391 206.8ZM261.614 194.42L261.654 194.48L260.394 195.9L260.354 195.72C260.354 195.68 259.674 193.08 257.754 193.28C257.734 193.28 257.714 193.28 257.714 193.3C257.174 193.46 256.894 194.88 256.894 196.18V198.56H259.634V200L256.894 198.78V207H254.974V196.46C254.974 194.82 256.134 193.44 257.674 193.08C257.694 193.08 257.694 193.08 257.714 193.08C257.934 193.04 258.174 193 258.414 193C258.554 193 260.454 192.82 261.614 194.42ZM167.11 221.74L167.13 221.6L169.47 222.8L169.43 222.88C168.27 224.82 165.95 226.02 163.37 226.02C159.63 226.02 156.61 223.46 156.61 220.3C156.61 217.16 159.63 214.58 163.37 214.58C165.95 214.58 168.27 215.8 169.43 217.74L169.47 217.82L167.13 219.02L167.11 218.86C166.67 216.52 165.17 214.86 163.47 214.8C163.43 214.8 163.41 214.8 163.37 214.8C161.25 214.8 159.09 217.26 159.09 220.3C159.09 223.34 161.25 225.82 163.37 225.82C163.41 225.82 163.43 225.82 163.47 225.82C165.17 225.76 166.67 224.08 167.11 221.74ZM176.681 214.56C180.241 214.56 180.281 218.48 180.281 218.52V226H178.141V217.78C178.141 217 177.841 216.28 177.301 215.78C176.401 214.94 175.281 215.02 173.941 215.96C173.401 216.5 173.041 217.14 172.821 217.6V226H170.901V212H172.821V217.14C173.041 216.74 173.361 216.26 173.781 215.82C173.781 215.8 173.801 215.8 173.801 215.8C174.481 215.12 175.421 214.56 176.681 214.56ZM188.809 214.64C192.649 215.2 192.649 218.66 192.649 218.7V226H186.109C185.089 226 184.129 225.74 183.329 225.2C182.029 224.36 181.489 223.16 181.769 221.82C182.149 220.12 183.849 218.64 185.729 218.36C187.189 218.16 188.349 218.36 189.229 218.68C189.229 218.68 189.249 218.68 189.269 218.68L189.289 218.7C189.929 218.96 190.409 219.28 190.729 219.54C190.649 218.02 190.369 216.24 189.609 215.36C189.349 215.06 189.069 214.9 188.749 214.84C188.689 214.82 188.649 214.82 188.589 214.82C185.929 214.64 184.389 218.34 184.389 218.38L184.349 218.48L182.209 217.4L182.269 217.3C182.289 217.28 183.769 214.56 187.969 214.56C188.189 214.58 188.389 214.58 188.589 214.6C188.669 214.62 188.729 214.62 188.809 214.64ZM188.449 225.8H190.729V219.8C190.429 219.54 189.929 219.16 189.169 218.88C189.089 218.86 189.009 218.84 188.949 218.84C188.009 218.66 187.109 218.7 186.349 218.96C185.089 219.34 184.189 220.54 184.029 222C183.969 222.54 184.029 223.1 184.209 223.58C184.469 224.3 185.049 224.86 186.009 225.3C186.769 225.64 187.609 225.8 188.449 225.8ZM196.513 226H194.593V212H196.513V226ZM200.536 226H198.616V212H200.536V226ZM212.28 221L212.3 220.84L214.28 221.92L214.24 222C213.42 224.4 211.04 226 208.3 226C204.86 226 202.08 223.42 202.08 220.26C202.08 217.08 204.86 214.52 208.3 214.52C209.86 214.52 211.36 215.04 212.52 216.02C213.66 216.98 214.38 218.3 214.52 219.72V219.84H205.32V219.64H212.28C212.06 216.86 210.32 214.72 208.3 214.72C206.1 214.72 204.3 217.2 204.3 220.26C204.3 223.32 206.1 225.8 208.3 225.8C210.3 225.8 212.02 223.74 212.28 221ZM221.779 214.56C225.339 214.56 225.379 218.48 225.379 218.52V226H223.239V217.78C223.239 217 222.939 216.28 222.399 215.78C221.719 215.16 220.919 215.04 219.999 215.42C219.339 215.68 218.799 216.16 218.399 216.74C218.199 217.06 218.019 217.34 217.919 217.6V226H215.999V214.56H217.919V217.14C218.139 216.74 218.459 216.26 218.879 215.82C218.879 215.8 218.899 215.8 218.899 215.8C219.579 215.12 220.519 214.56 221.779 214.56ZM235.727 225.18C236.427 225.44 236.967 225.98 237.207 226.68C237.407 227.26 237.387 227.88 237.127 228.5L237.087 228.56H234.487L234.607 228.4C235.127 227.68 235.307 227.06 235.127 226.58C234.607 225.06 231.967 225.3 231.807 225.32H231.787C230.927 225.5 230.207 225.74 229.787 225.88L229.567 225.64L231.227 224.42C228.647 223.9 226.727 221.9 226.727 219.54C226.727 216.8 229.347 214.54 232.567 214.54C233.107 214.54 233.627 214.62 234.107 214.72L234.867 212H237.227L234.527 214.84C236.787 215.52 238.427 217.38 238.427 219.54C238.427 222.3 235.807 224.54 232.567 224.54C232.467 224.54 232.367 224.54 232.267 224.54L231.967 225.08C233.547 224.78 234.807 224.8 235.727 225.18ZM228.907 219.54C228.907 222.18 230.547 224.34 232.567 224.34C234.607 224.34 236.247 222.18 236.247 219.54C236.247 216.9 234.607 214.76 232.567 214.76C230.547 214.76 228.907 216.9 228.907 219.54ZM249.584 221L249.604 220.84L251.584 221.92L251.544 222C250.724 224.4 248.344 226 245.604 226C242.164 226 239.384 223.42 239.384 220.26C239.384 217.08 242.164 214.52 245.604 214.52C247.164 214.52 248.664 215.04 249.824 216.02C250.964 216.98 251.684 218.3 251.824 219.72V219.84H242.624V219.64H249.584C249.364 216.86 247.624 214.72 245.604 214.72C243.404 214.72 241.604 217.2 241.604 220.26C241.604 223.32 243.404 225.8 245.604 225.8C247.604 225.8 249.324 223.74 249.584 221ZM261.064 215.26L261.124 215.32L260.404 217.26L260.284 217.14C260.224 217.08 259.364 216.2 258.164 215.94C256.964 215.7 255.764 216.32 255.224 217.4V226H253.304V214.56H255.224V216.98C255.584 216.36 256.464 215.14 257.844 214.72C258.864 214.4 259.944 214.6 261.064 215.26ZM272.352 222.12C272.472 223.76 271.392 224.7 270.472 225.18C270.452 225.18 270.452 225.18 270.452 225.18C269.632 225.62 268.612 225.8 267.652 225.8C266.972 225.8 266.312 225.72 265.812 225.56C263.532 224.86 262.432 223.34 261.912 222.18L261.892 222.1L264.012 221.5L264.052 221.56C264.052 221.58 264.592 222.7 265.652 223.66C266.732 224.68 267.932 225.18 269.232 225.16C270.112 225.16 270.952 224.82 271.512 224.16C271.852 223.78 272.092 223.28 272.152 222.68C272.132 222.1 271.972 221.3 271.312 220.78C270.532 220.18 269.492 220.4 268.192 220.7C267.272 220.9 266.232 221.12 265.052 221.12H265.032C263.552 221.12 262.712 220.62 262.252 220.12C261.772 219.62 261.672 219.12 261.652 219.12C261.432 218.4 261.612 217.48 262.252 216.76C263.232 215.54 264.452 214.86 265.852 214.7C268.712 214.38 271.432 216.48 271.452 216.5L271.532 216.56L269.952 218.1L269.892 218.04C269.852 218 266.452 214.7 263.212 216.24C262.892 216.4 262.612 216.62 262.392 216.86C262.372 216.88 262.352 216.9 262.352 216.92H262.332C261.732 217.64 261.592 218.54 261.892 219.2C262.272 220.08 263.152 220.16 264.552 219.86C266.952 219.32 269.672 218.7 271.132 219.68C271.792 220.14 272.272 221.1 272.352 222.12Z" fill="#FF822E"/>
<path d="M277.236 213.762L277.107 214L277.236 214.238L360.697 368.741L213.756 281.031L213.5 280.879L213.244 281.031L66.3018 368.741L149.755 214.238L149.883 214L149.755 213.762L66.3018 59.2585L213.244 146.959L213.5 147.112L213.756 146.959L360.697 59.2585L277.236 213.762Z" stroke="#FF822E"/>
<path d="M364.072 273.652C358.183 273.008 353.523 267.721 352.956 261.041L352 249.761L351.044 261.041C350.477 267.722 345.817 273.009 339.928 273.652L330 274.737L339.928 275.822C345.817 276.466 350.477 281.754 351.044 288.434L352 299.713L352.956 288.434C353.523 281.753 358.183 276.465 364.072 275.822L374 274.737L364.072 273.652Z" fill="#FF822E"/>
<path d="M93.0718 215.753C87.1828 215.109 82.523 209.821 81.9563 203.141L81 191.862L80.0437 203.141C79.477 209.823 74.8172 215.11 68.9282 215.753L59 216.838L68.9282 217.923C74.8172 218.567 79.477 223.855 80.0437 230.535L81 241.814L81.9563 230.535C82.523 223.854 87.1828 218.566 93.0718 217.923L103 216.838L93.0718 215.753Z" fill="#FF822E"/>
</svg>
