<svg width="428" height="428" viewBox="0 0 428 428" fill="none" xmlns="http://www.w3.org/2000/svg">
<rect width="428" height="428" fill="white"/>
<path d="M226.496 71.8578C244.833 138.325 295.966 190.251 362.433 208.574L379.896 213.389L381.644 213.871L379.896 214.353L362.432 219.167C295.969 237.489 245.335 289.411 226.996 355.878L220.879 413.059L219.883 413.048L215.072 355.875C196.877 289.934 145.607 238.302 79.8858 219.603L78.3314 219.167L60.8678 214.353L59.1194 213.871L60.8678 213.389L78.3307 208.574L79.8865 208.138C145.608 189.439 196.877 137.806 215.072 71.8647L219.883 11.9595L220.88 11.9532L226.496 71.8578Z" stroke="#FF822E"/>
<path d="M165.733 202.46C168.893 202.46 171.473 205.02 171.473 208.18C171.473 211.34 168.893 213.9 165.733 213.9C164.393 213.9 163.093 213.42 162.073 212.56V216.46H160.153V202.46H165.733ZM167.733 212.32C168.893 211.3 169.613 209.82 169.613 208.18C169.613 205.46 167.593 203.12 164.893 202.72C164.633 202.68 164.373 202.66 164.093 202.66H162.073V212.3C163.673 213.72 166.113 213.74 167.733 212.32ZM180.784 203.26L180.844 203.32L180.124 205.26L180.004 205.14C179.944 205.08 179.084 204.2 177.884 203.94C176.684 203.7 175.484 204.32 174.944 205.4V214H173.024V202.56H174.944V204.98C175.304 204.36 176.184 203.14 177.564 202.72C178.584 202.4 179.664 202.6 180.784 203.26ZM187.063 202.56C190.403 202.62 193.103 205.16 193.103 208.28C193.103 211.42 190.403 213.96 187.063 214C187.043 214 187.003 214 186.963 214C186.943 214 186.903 214 186.863 214C183.523 213.96 180.843 211.42 180.843 208.28C180.843 205.16 183.523 202.62 186.863 202.56C186.903 202.56 186.943 202.56 186.963 202.56C187.003 202.56 187.043 202.56 187.063 202.56ZM187.063 213.8C189.163 213.72 190.843 211.28 190.843 208.28C190.843 205.3 189.163 202.84 187.063 202.78C187.043 202.78 187.003 202.78 186.963 202.78C186.943 202.78 186.903 202.78 186.863 202.78C184.783 202.84 183.083 205.3 183.083 208.28C183.083 211.28 184.783 213.72 186.863 213.8C186.903 213.8 186.943 213.8 186.963 213.8C187.003 213.8 187.043 213.8 187.063 213.8ZM201.285 201.42L201.325 201.48L200.065 202.9L200.025 202.72C200.025 202.68 199.345 200.08 197.425 200.28C197.405 200.28 197.385 200.28 197.385 200.3C196.845 200.46 196.565 201.88 196.565 203.18V205.56H199.305V207L196.565 205.78V214H194.645V203.46C194.645 201.82 195.805 200.44 197.345 200.08C197.365 200.08 197.365 200.08 197.385 200.08C197.605 200.04 197.845 200 198.085 200C198.225 200 200.125 199.82 201.285 201.42ZM210.711 209L210.731 208.84L212.711 209.92L212.671 210C211.851 212.4 209.471 214 206.731 214C203.291 214 200.511 211.42 200.511 208.26C200.511 205.08 203.291 202.52 206.731 202.52C208.291 202.52 209.791 203.04 210.951 204.02C212.091 204.98 212.811 206.3 212.951 207.72V207.84H203.751V207.64H210.711C210.491 204.86 208.751 202.72 206.731 202.72C204.531 202.72 202.731 205.2 202.731 208.26C202.731 211.32 204.531 213.8 206.731 213.8C208.731 213.8 210.451 211.74 210.711 209ZM224.651 210.12C224.771 211.76 223.691 212.7 222.771 213.18C222.751 213.18 222.751 213.18 222.751 213.18C221.931 213.62 220.911 213.8 219.951 213.8C219.271 213.8 218.611 213.72 218.111 213.56C215.831 212.86 214.731 211.34 214.211 210.18L214.191 210.1L216.311 209.5L216.351 209.56C216.351 209.58 216.891 210.7 217.951 211.66C219.031 212.68 220.231 213.18 221.531 213.16C222.411 213.16 223.251 212.82 223.811 212.16C224.151 211.78 224.391 211.28 224.451 210.68C224.431 210.1 224.271 209.3 223.611 208.78C222.831 208.18 221.791 208.4 220.491 208.7C219.571 208.9 218.531 209.12 217.351 209.12H217.331C215.851 209.12 215.011 208.62 214.551 208.12C214.071 207.62 213.971 207.12 213.951 207.12C213.731 206.4 213.911 205.48 214.551 204.76C215.531 203.54 216.751 202.86 218.151 202.7C221.011 202.38 223.731 204.48 223.751 204.5L223.831 204.56L222.251 206.1L222.191 206.04C222.151 206 218.751 202.7 215.511 204.24C215.191 204.4 214.911 204.62 214.691 204.86C214.671 204.88 214.651 204.9 214.651 204.92H214.631C214.031 205.64 213.891 206.54 214.191 207.2C214.571 208.08 215.451 208.16 216.851 207.86C219.251 207.32 221.971 206.7 223.431 207.68C224.091 208.14 224.571 209.1 224.651 210.12ZM236.408 210.12C236.528 211.76 235.448 212.7 234.528 213.18C234.508 213.18 234.508 213.18 234.508 213.18C233.688 213.62 232.668 213.8 231.708 213.8C231.028 213.8 230.368 213.72 229.868 213.56C227.588 212.86 226.488 211.34 225.968 210.18L225.948 210.1L228.068 209.5L228.108 209.56C228.108 209.58 228.648 210.7 229.708 211.66C230.788 212.68 231.988 213.18 233.288 213.16C234.168 213.16 235.008 212.82 235.568 212.16C235.908 211.78 236.148 211.28 236.208 210.68C236.188 210.1 236.028 209.3 235.368 208.78C234.588 208.18 233.548 208.4 232.248 208.7C231.328 208.9 230.288 209.12 229.108 209.12H229.088C227.608 209.12 226.768 208.62 226.308 208.12C225.828 207.62 225.728 207.12 225.708 207.12C225.488 206.4 225.668 205.48 226.308 204.76C227.288 203.54 228.508 202.86 229.908 202.7C232.768 202.38 235.488 204.48 235.508 204.5L235.588 204.56L234.008 206.1L233.948 206.04C233.908 206 230.508 202.7 227.268 204.24C226.948 204.4 226.668 204.62 226.448 204.86C226.428 204.88 226.408 204.9 226.408 204.92H226.388C225.788 205.64 225.648 206.54 225.948 207.2C226.328 208.08 227.208 208.16 228.608 207.86C231.008 207.32 233.728 206.7 235.188 207.68C235.848 208.14 236.328 209.1 236.408 210.12ZM239.866 214H237.946V202.52H239.866V214ZM238.906 201.9C238.906 200.9 238.086 200.1 237.106 200.1C238.086 200.1 238.906 199.28 238.906 198.3C238.906 199.28 239.706 200.1 240.706 200.1C239.706 200.1 238.906 200.9 238.906 201.9ZM247.63 202.56C250.97 202.62 253.67 205.16 253.67 208.28C253.67 211.42 250.97 213.96 247.63 214C247.61 214 247.57 214 247.53 214C247.51 214 247.47 214 247.43 214C244.09 213.96 241.41 211.42 241.41 208.28C241.41 205.16 244.09 202.62 247.43 202.56C247.47 202.56 247.51 202.56 247.53 202.56C247.57 202.56 247.61 202.56 247.63 202.56ZM247.63 213.8C249.73 213.72 251.41 211.28 251.41 208.28C251.41 205.3 249.73 202.84 247.63 202.78C247.61 202.78 247.57 202.78 247.53 202.78C247.51 202.78 247.47 202.78 247.43 202.78C245.35 202.84 243.65 205.3 243.65 208.28C243.65 211.28 245.35 213.72 247.43 213.8C247.47 213.8 247.51 213.8 247.53 213.8C247.57 213.8 247.61 213.8 247.63 213.8ZM260.992 202.56C264.552 202.56 264.592 206.48 264.592 206.52V214H262.452V205.78C262.452 205 262.152 204.28 261.612 203.78C260.932 203.16 260.132 203.04 259.212 203.42C258.552 203.68 258.012 204.16 257.612 204.74C257.412 205.06 257.232 205.34 257.132 205.6V214H255.212V202.56H257.132V205.14C257.352 204.74 257.672 204.26 258.092 203.82C258.092 203.8 258.112 203.8 258.112 203.8C258.792 203.12 259.732 202.56 260.992 202.56ZM273.12 202.64C276.96 203.2 276.96 206.66 276.96 206.7V214H270.42C269.4 214 268.44 213.74 267.64 213.2C266.34 212.36 265.8 211.16 266.08 209.82C266.46 208.12 268.16 206.64 270.04 206.36C271.5 206.16 272.66 206.36 273.54 206.68C273.54 206.68 273.56 206.68 273.58 206.68L273.6 206.7C274.24 206.96 274.72 207.28 275.04 207.54C274.96 206.02 274.68 204.24 273.92 203.36C273.66 203.06 273.38 202.9 273.06 202.84C273 202.82 272.96 202.82 272.9 202.82C270.24 202.64 268.7 206.34 268.7 206.38L268.66 206.48L266.52 205.4L266.58 205.3C266.6 205.28 268.08 202.56 272.28 202.56C272.5 202.58 272.7 202.58 272.9 202.6C272.98 202.62 273.04 202.62 273.12 202.64ZM272.76 213.8H275.04V207.8C274.74 207.54 274.24 207.16 273.48 206.88C273.4 206.86 273.32 206.84 273.26 206.84C272.32 206.66 271.42 206.7 270.66 206.96C269.4 207.34 268.5 208.54 268.34 210C268.28 210.54 268.34 211.1 268.52 211.58C268.78 212.3 269.36 212.86 270.32 213.3C271.08 213.64 271.92 213.8 272.76 213.8ZM280.823 214H278.903V200H280.823V214ZM202.67 230.1L203.93 231.52L203.89 231.6C202.95 232.86 201.55 233 200.95 233C200.81 233 200.71 233 200.69 233C198.79 233 197.25 231.44 197.25 229.54V219H199.17V224.56H201.91V225.9L199.17 224.78V229.82C199.17 231.12 199.45 232.56 199.99 232.72C200.01 232.72 200.01 232.72 200.03 232.72C201.95 232.92 202.63 230.32 202.63 230.28L202.67 230.1ZM214.276 228L214.296 227.84L216.276 228.92L216.236 229C215.416 231.4 213.036 233 210.296 233C206.856 233 204.076 230.42 204.076 227.26C204.076 224.08 206.856 221.52 210.296 221.52C211.856 221.52 213.356 222.04 214.516 223.02C215.656 223.98 216.376 225.3 216.516 226.72V226.84H207.316V226.64H214.276C214.056 223.86 212.316 221.72 210.296 221.72C208.096 221.72 206.296 224.2 206.296 227.26C206.296 230.32 208.096 232.8 210.296 232.8C212.296 232.8 214.016 230.74 214.276 228ZM224.555 221.64C228.395 222.2 228.395 225.66 228.395 225.7V233H221.855C220.835 233 219.875 232.74 219.075 232.2C217.775 231.36 217.235 230.16 217.515 228.82C217.895 227.12 219.595 225.64 221.475 225.36C222.935 225.16 224.095 225.36 224.975 225.68C224.975 225.68 224.995 225.68 225.015 225.68L225.035 225.7C225.675 225.96 226.155 226.28 226.475 226.54C226.395 225.02 226.115 223.24 225.355 222.36C225.095 222.06 224.815 221.9 224.495 221.84C224.435 221.82 224.395 221.82 224.335 221.82C221.675 221.64 220.135 225.34 220.135 225.38L220.095 225.48L217.955 224.4L218.015 224.3C218.035 224.28 219.515 221.56 223.715 221.56C223.935 221.58 224.135 221.58 224.335 221.6C224.415 221.62 224.475 221.62 224.555 221.64ZM224.195 232.8H226.475V226.8C226.175 226.54 225.675 226.16 224.915 225.88C224.835 225.86 224.755 225.84 224.695 225.84C223.755 225.66 222.855 225.7 222.095 225.96C220.835 226.34 219.935 227.54 219.775 229C219.715 229.54 219.775 230.1 219.955 230.58C220.215 231.3 220.795 231.86 221.755 232.3C222.515 232.64 223.355 232.8 224.195 232.8ZM240.139 221.56C243.719 221.56 243.759 225.48 243.759 225.52V233H241.619V224.78C241.619 224 241.319 223.28 240.759 222.78C239.879 221.94 238.739 222.02 237.379 222.98C237.359 223 237.359 223 237.339 223.02C238.079 224.14 238.079 225.46 238.079 225.52V233H235.939V224.78C235.939 224 235.639 223.28 235.099 222.78C234.319 222.06 233.359 222.02 232.259 222.64V233H230.339V221.56H232.259V222.26C232.919 221.8 233.659 221.56 234.479 221.56C235.659 221.56 236.599 222 237.219 222.84C237.239 222.84 237.239 222.84 237.239 222.82C238.059 221.98 239.039 221.56 240.139 221.56Z" fill="#FF822E"/>
<path d="M54.1026 290.336C49.4182 289.824 45.7115 285.617 45.2607 280.304L44.5 271.332L43.7393 280.304C43.2885 285.618 39.5818 289.824 34.8974 290.336L27 291.199L34.8974 292.062C39.5818 292.574 43.2885 296.78 43.7393 302.094L44.5 311.066L45.2607 302.094C45.7115 296.78 49.4182 292.573 54.1026 292.062L62 291.199L54.1026 290.336Z" fill="#FF822E"/>
<path d="M324.103 55.3333C319.418 54.8209 315.712 50.6147 315.261 45.3011L314.5 36.3289L313.739 45.3011C313.288 50.6156 309.582 54.8218 304.897 55.3333L297 56.1962L304.897 57.0592C309.582 57.5716 313.288 61.7777 313.739 67.0913L314.5 76.0636L315.261 67.0913C315.712 61.7768 319.418 57.5707 324.103 57.0592L332 56.1962L324.103 55.3333Z" fill="#FF822E"/>
</svg>
